<svg xmlns="http://www.w3.org/2000/svg" width="256" height="256" viewBox="0 0 100 100"><rect width="100" height="100" rx="20" fill="#000000"></rect><path fill="#ffa500" d="M54.51 60.66L63.33 77.05Q63.78 77.94 63.78 78.66L63.78 78.66Q63.78 80.02 62.61 81.00Q61.44 82.00 60.00 82.00L60.00 82.00Q59.01 82.00 58.11 81.45Q57.21 80.91 56.67 79.83L56.67 79.83L46.77 61.11Q44.79 57.42 42.36 56.03Q39.93 54.63 35.52 54.63L35.52 54.63L24.27 54.63L22.47 78.39Q22.38 80.02 21.30 80.96Q20.22 81.91 18.51 81.91L18.51 81.91Q16.80 81.91 15.86 80.87Q14.91 79.83 15.09 78.03L15.09 78.03L19.50 21.61Q19.59 19.90 20.67 18.95Q21.75 18.01 23.37 18.01L23.37 18.01L45.69 18.01Q55.41 18.01 60.63 22.37Q65.85 26.73 65.85 34.92L65.85 34.92Q65.85 43.20 61.35 48.06Q56.85 52.92 47.94 53.91L47.94 53.91Q49.92 54.63 51.45 56.21Q52.98 57.78 54.51 60.66L54.51 60.66ZM24.72 48.52L43.26 48.52Q51.00 48.52 54.83 45.27Q58.65 42.03 58.65 35.38L58.65 35.38Q58.65 29.62 55.28 26.87Q51.90 24.13 45.15 24.13L45.15 24.13L26.61 24.13L24.72 48.52ZM80.07 81.91Q77.91 81.91 76.47 80.51Q75.03 79.11 75.03 76.86L75.03 76.86Q75.03 74.61 76.47 73.17Q77.91 71.73 80.07 71.73L80.07 71.73Q82.14 71.73 83.54 73.17Q84.93 74.61 84.93 76.86L84.93 76.86Q84.93 79.11 83.54 80.51Q82.14 81.91 80.07 81.91L80.07 81.91Z"></path></svg>